{"title":"Shaolin Warrior 2013 DVDRIP XVID AC3 TiTAN [P2PDL]","uid":9393593,"size":1502922830,"categoryP":"video","categoryS":"movies","magnet":"?xt=urn:btih:a9893be02d3875300614d27ae650b5713ac267f0&amp;dn=Shaolin+Warrior+2013+DVDRIP+XVID+AC3+TiTAN+%5BP2PDL%5D&amp;tr=udp%3A%2F%2Ftracker.openbittorrent.com%3A80&amp;tr=udp%3A%2F%2Fopen.demonii.com%3A1337&amp;tr=udp%3A%2F%2Ftracker.coppersurfer.tk%3A6969&amp;tr=udp%3A%2F%2Fexodus.desync.com%3A6969","seeders":1,"leechers":0,"uploader":"ValidusVyto","files":3,"time":1387932087,"description":"Shaolin.Warrior.2013.DVDRIP.XVID.AC3.TiTAN\n\nInfo:\nGeneral\nComplete name                            : Shaolin.Warrior.2013.DVDRIP.XVID.AC3.TiTAN.[P2PDL]/Shaolin Warrior 2013 DVDRIP XVID AC3 TiTAN.avi\nFormat                                   : AVI\nFormat/Info                              : Audio Video Interleave\nFile size                                : 1.40 GiB\nDuration                                 : 1h 31mn\nOverall bit rate                         : 2 197 Kbps\n\nVideo\nID                                       : 0\nFormat                                   : MPEG-4 Visual\nFormat profile                           : Advanced Simple@L5\nFormat settings, BVOP                    : 1\nFormat settings, QPel                    : No\nFormat settings, GMC                     : No warppoints\nFormat settings, Matrix                  : Default (H.263)\nMuxing mode                              : Packed bitstream\nCodec ID                                 : XVID\nCodec ID/Hint                            : XviD\nDuration                                 : 1h 31mn\nBit rate                                 : 1 804 Kbps\nWidth                                    : 720 pixels\nHeight                                   : 400 pixels\nDisplay aspect ratio                     : 16:9\nFrame rate                               : 29.970 fps\nColor space                              : YUV\nChroma subsampling                       : 4:2:0\nBit depth                                : 8 bits\nScan type                                : Progressive\nCompression mode                         : Lossy\nBits/(Pixel*Frame)                       : 0.209\nStream size                              : 1.15 GiB (82%)\nWriting library                          : XviD 1.2.1 (UTC 2008-12-04)\n\nAudio\nID                                       : 1\nFormat                                   : AC-3\nFormat/Info                              : Audio Coding 3\nMode extension                           : CM (complete main)\nFormat settings, Endianness              : Big\nCodec ID                                 : 2000\nDuration                                 : 1h 31mn\nBit rate mode                            : Constant\nBit rate                                 : 384 Kbps\nChannel(s)                               : 6 channels\nChannel positions                        : Front: L C R, Side: L R, LFE\nSampling rate                            : 48.0 KHz\nBit depth                                : 16 bits\nCompression mode                         : Lossy\nStream size                              : 251 MiB (17%)\nAlignment                                : Aligned on interleaves\nInterleave, duration                     : 64 ms (1.92 video frames)\nInterleave, preload duration             : 192 ms\nTitle                                    : Ninja - [0] English_new\n\n\n\n\nScreenshots: &lt;a href=&quot;\nhttp://beeimg.com/images/q95134671741.jpg&quot; rel=&quot;nofollow&quot; target=&quot;_NEW&quot;&gt;\nhttp://beeimg.com/images/q95134671741.jpg&lt;/a&gt; &lt;a href=&quot;\nhttp://beeimg.com/images/z75531923962.jpg&quot; rel=&quot;nofollow&quot; target=&quot;_NEW&quot;&gt;\nhttp://beeimg.com/images/z75531923962.jpg&lt;/a&gt;","torrent":{"xt":"urn:btih:a9893be02d3875300614d27ae650b5713ac267f0","amp;dn":"Shaolin+Warrior+2013+DVDRIP+XVID+AC3+TiTAN+%5BP2PDL%5D","amp;tr":["udp%3A%2F%2Ftracker.openbittorrent.com%3A80","udp%3A%2F%2Fopen.demonii.com%3A1337","udp%3A%2F%2Ftracker.coppersurfer.tk%3A6969","udp%3A%2F%2Fexodus.desync.com%3A6969"],"infoHash":"a9893be02d3875300614d27ae650b5713ac267f0","infoHashBuffer":{"type":"Buffer","data":[169,137,59,224,45,56,117,48,6,20,210,122,230,80,181,113,58,194,103,240]},"announce":[],"urlList":[]}}